<svg width="36" height="36" viewBox="0 0 36 36" fill="none" xmlns="http://www.w3.org/2000/svg">
<path d="M16 34H5V2H29V15H27V4H7V32H14H16V34Z" fill="#44449b"/>
<path d="M21 7H9V9H21V7Z" fill="#44449b"/>
<path d="M18 11H9V13H18V11Z" fill="#44449b"/>
<path d="M27.7468 20H25.7468V16C25.7468 14.3 24.4468 13 22.7468 13C21.0468 13 19.7468 14.3 19.7468 16V23.1L17.4468 21.8C16.8468 21.5 16.2468 21.4 15.6468 21.6C15.0468 21.8 14.5468 22.2 14.2468 22.8C13.8468 23.6 13.9468 24.5 14.4468 25.3L19.0468 31.8C20.0468 33.1 21.5468 33.9 23.1468 34H23.3468C25.5468 34 27.6468 33.1 29.2468 31.6C30.8468 30 31.7468 27.9 31.7468 25.7V24.1C31.7468 23 31.3468 22 30.5468 21.3C29.8468 20.4 28.8468 20 27.7468 20ZM29.7468 25.6C29.7468 27.3 29.0468 28.9 27.8468 30.1C26.6468 31.3 25.1468 31.9 23.4468 32H23.2468C22.1468 32 21.1468 31.5 20.5468 30.6L15.9468 24.1C15.8468 24 15.8468 23.8 15.9468 23.7C16.0468 23.6 16.1468 23.5 16.1468 23.5C16.2468 23.5 16.3468 23.5 16.4468 23.5L18.7468 24.8C19.3468 25.2 20.1468 25.2 20.7468 24.8C21.3468 24.4 21.7468 23.8 21.7468 23.1V16C21.7468 15.5 22.1468 15 22.7468 15C23.3468 15 23.7468 15.4 23.7468 16V22H27.7468C28.2468 22 28.7468 22.2 29.1468 22.6C29.5468 23 29.7468 23.5 29.7468 24V25.6Z" fill="#44449b"/>
</svg>
