<svg width="36" height="36" viewBox="0 0 36 36" fill="none" xmlns="http://www.w3.org/2000/svg">
<path fill-rule="evenodd" clip-rule="evenodd" d="M18.0004 1.84814L21.7659 3.9999H26.0807L28.2333 7.76696L32.0004 9.91957V14.2343L34.1521 17.9999L32.0004 21.7655V26.0802L28.2333 28.2328L26.0807 31.9999H21.7659L18.0004 34.1516L14.2348 31.9999H9.92006L7.76745 28.2328L4.00038 26.0802V21.7655L1.84863 17.9999L4.00038 14.2343V9.91957L7.76745 7.76696L9.92006 3.9999H14.2348L18.0004 1.84814ZM18.0004 4.15165L14.7659 5.9999H11.0807L9.23332 9.23283L6.00038 11.0802V14.7655L4.15213 17.9999L6.00038 21.2343V24.9196L9.23332 26.767L11.0807 29.9999H14.7659L18.0004 31.8481L21.2348 29.9999H24.9201L26.7675 26.767L30.0004 24.9196V21.2343L31.8486 17.9999L30.0004 14.7655V11.0802L26.7675 9.23283L24.9201 5.9999H21.2348L18.0004 4.15165Z" fill="#44449b"/>
<path fill-rule="evenodd" clip-rule="evenodd" d="M24.7072 12.7072L12.7072 24.7072L11.293 23.293L23.293 11.293L24.7072 12.7072Z" fill="#44449b"/>
<path fill-rule="evenodd" clip-rule="evenodd" d="M14 13C13.4477 13 13 13.4477 13 14C13 14.5523 13.4477 15 14 15C14.5523 15 15 14.5523 15 14C15 13.4477 14.5523 13 14 13ZM11 14C11 12.3431 12.3431 11 14 11C15.6569 11 17 12.3431 17 14C17 15.6569 15.6569 17 14 17C12.3431 17 11 15.6569 11 14Z" fill="#44449b"/>
<path fill-rule="evenodd" clip-rule="evenodd" d="M22 21C21.4477 21 21 21.4477 21 22C21 22.5523 21.4477 23 22 23C22.5523 23 23 22.5523 23 22C23 21.4477 22.5523 21 22 21ZM19 22C19 20.3431 20.3431 19 22 19C23.6569 19 25 20.3431 25 22C25 23.6569 23.6569 25 22 25C20.3431 25 19 23.6569 19 22Z" fill="#44449b"/>
</svg>
