<svg width="36" height="36" viewBox="0 0 36 36" fill="none" xmlns="http://www.w3.org/2000/svg">
<path fill-rule="evenodd" clip-rule="evenodd" d="M17.9996 5.5C15.3353 5.5 12.7802 6.55836 10.8963 8.44225C9.01246 10.3261 7.9541 12.8812 7.9541 15.5455C7.9541 19.439 10.4812 23.1838 13.2028 26.0566C14.5431 27.4714 15.8869 28.6288 16.8966 29.4329C17.3399 29.7859 17.7172 30.0695 17.9996 30.2756C18.2819 30.0695 18.6593 29.7859 19.1025 29.4329C20.1123 28.6288 21.456 27.4714 22.7963 26.0566C25.5179 23.1838 28.045 19.439 28.045 15.5455C28.045 12.8812 26.9867 10.3261 25.1028 8.44225C23.2189 6.55836 20.6638 5.5 17.9996 5.5ZM17.9996 31.5C17.4449 32.3321 17.4446 32.3319 17.4443 32.3317L17.4435 32.3311L17.4411 32.3295L17.4333 32.3243L17.406 32.3058C17.3827 32.29 17.3492 32.2671 17.3061 32.2373C17.2201 32.1777 17.0961 32.0906 16.9395 31.9775C16.6263 31.7513 16.1822 31.4206 15.6508 30.9975C14.5895 30.1524 13.1719 28.932 11.7509 27.4321C8.94973 24.4753 5.9541 20.2429 5.9541 15.5455C5.9541 12.3508 7.22317 9.28699 9.48213 7.02803C11.7411 4.76907 14.8049 3.5 17.9996 3.5C21.1942 3.5 24.258 4.76907 26.517 7.02803C28.7759 9.28699 30.045 12.3508 30.045 15.5455C30.045 20.2429 27.0494 24.4753 24.2482 27.4321C22.8272 28.932 21.4096 30.1524 20.3483 30.9975C19.8169 31.4206 19.3728 31.7513 19.0597 31.9775C18.903 32.0906 18.779 32.1777 18.693 32.2373C18.65 32.2671 18.6164 32.29 18.5931 32.3058L18.5658 32.3243L18.558 32.3295L18.5556 32.3311L18.5548 32.3317C18.5545 32.3319 18.5543 32.3321 17.9996 31.5ZM17.9996 31.5L18.5543 32.3321C18.2184 32.556 17.7808 32.556 17.4449 32.3321L17.9996 31.5Z" fill="#44449b"/>
<path fill-rule="evenodd" clip-rule="evenodd" d="M18.0002 12.8638C16.5191 12.8638 15.3184 14.0645 15.3184 15.5456C15.3184 17.0267 16.5191 18.2274 18.0002 18.2274C19.4813 18.2274 20.682 17.0267 20.682 15.5456C20.682 14.0645 19.4813 12.8638 18.0002 12.8638ZM13.3184 15.5456C13.3184 12.9599 15.4145 10.8638 18.0002 10.8638C20.5859 10.8638 22.682 12.9599 22.682 15.5456C22.682 18.1313 20.5859 20.2274 18.0002 20.2274C15.4145 20.2274 13.3184 18.1313 13.3184 15.5456Z" fill="#44449b"/>
</svg>
