<svg width="36" height="36" viewBox="0 0 36 36" fill="none" xmlns="http://www.w3.org/2000/svg">
<path d="M22 30C22 31.1 21.1 32 20 32H10C8.9 32 8 31.1 8 30V6C8 4.9 8.9 4 10 4H20C21.1 4 22 4.9 22 6V7.1H24V6C24 3.8 22.2 2 20 2H10C7.8 2 6 3.8 6 6V30C6 32.2 7.8 34 10 34H20C22.2 34 24 32.2 24 30V25H22V30Z" fill="#44449b"/>
<path d="M17 28H13V30H17V28Z" fill="#44449b"/>
<path d="M16 27L21.3 23H28C29.7 23 31 21.7 31 20V12C31 10.3 29.7 9 28 9H16C14.3 9 13 10.3 13 12V20C13 21.7 14.3 23 16 23V27ZM20.7 21L18 23V21H16C15.4 21 15 20.6 15 20V12C15 11.4 15.4 11 16 11H28C28.6 11 29 11.4 29 12V20C29 20.6 28.6 21 28 21H20.7Z" fill="#44449b"/>
</svg>
