<?xml version="1.0" encoding="UTF-8"?>
<svg width="184px" height="184px" viewBox="0 0 184 184" version="1.1" xmlns="http://www.w3.org/2000/svg" xmlns:xlink="http://www.w3.org/1999/xlink">
    <title>chain/solana-icon</title>
    <g id="chain/solana-icon" stroke="none" stroke-width="1" fill="none" fill-rule="evenodd">
        <g id="solanaLogoMark-Copy-3" transform="translate(8.000000, 19.000000)" fill="#4E4763" fill-rule="nonzero">
            <path d="M166.140072,115.100103 L138.571534,143.998513 C137.972319,144.626256 137.24711,145.126758 136.441376,145.468832 C135.635643,145.810905 134.766417,145.987251 133.888097,145.986754 L3.20049469,145.986754 C2.57690725,145.986754 1.96691127,145.808583 1.44546161,145.474472 C0.924003681,145.140196 0.513797428,144.664411 0.265242093,144.105349 C0.0166872528,143.546452 -0.0593892914,142.928662 0.046360154,142.32796 C0.152109434,141.727258 0.435077657,141.169854 0.860499086,140.724262 L28.4496685,111.825853 C29.0473957,111.199769 29.7701249,110.700262 30.5732124,110.358354 C31.3764653,110.016281 32.2428804,109.839106 33.1190511,109.837613 L163.799428,109.837613 C164.422949,109.837613 165.032912,110.015783 165.554745,110.349893 C166.075587,110.68417 166.485646,111.16012 166.735319,111.719017 C166.983338,112.27808 167.059398,112.895703 166.953576,113.496406 C166.847754,114.097108 166.565012,114.654512 166.140072,115.100103 Z M138.571534,56.9069634 C137.972319,56.2792204 137.24711,55.7787181 136.441376,55.4366446 C135.635643,55.094737 134.766417,54.9183916 133.888097,54.9188882 L3.20049469,54.9188882 C2.57690725,54.9188882 1.96691127,55.0968936 1.44546161,55.4311701 C0.924003681,55.7654466 0.513797428,56.2412306 0.265242093,56.8001277 C0.0166872528,57.3591906 -0.0593892914,57.97698 0.046360154,58.5776823 C0.152109434,59.1782187 0.435077657,59.7356227 0.860499086,60.1813799 L28.4496685,89.0797894 C29.0473957,89.7058735 29.7701249,90.2052146 30.5732124,90.5472881 C31.3764653,90.8891957 32.2428804,91.0665364 33.1190511,91.0678636 L163.799428,91.0678636 C164.422949,91.0678636 165.032912,90.8898593 165.554745,90.5555828 C166.075587,90.2213063 166.485646,89.7455222 166.735319,89.1866252 C166.983338,88.6275623 167.059398,88.0097729 166.953576,87.4090706 C166.847754,86.8085342 166.565012,86.2511302 166.140072,85.8053729 L138.571534,56.9069634 Z M3.20049469,36.1491407 L133.888097,36.1491407 C134.766417,36.1491407 135.635643,35.9732925 136.441376,35.631219 C137.24711,35.2891455 137.972319,34.7886432 138.571534,34.1609002 L166.140072,5.26247406 C166.565012,4.8168495 166.847754,4.25946212 166.953576,3.65879299 C167.059398,3.05812386 166.983338,2.44035106 166.735319,1.8813711 C166.485646,1.32239114 166.075587,0.846550637 165.554745,0.512318943 C165.032912,0.17808559 164.422949,0 163.799428,0 L33.1190511,0 C32.2428804,0.00145720825 31.3764653,0.178666219 30.5732124,0.520655118 C29.7701249,0.862645676 29.0473957,1.36213437 28.4496685,1.98820686 L0.867610635,30.8866496 C0.442600918,31.3317433 0.159757367,31.8886495 0.0537681691,32.4885224 C-0.0522211939,33.0885611 0.0232516706,33.7058528 0.270930009,34.2645839 C0.518609009,34.8233151 0.927727282,35.2990992 1.44811046,35.6338733 C1.9684986,35.9686475 2.57751903,36.1476472 3.20049469,36.1491407 Z" id="Shape"></path>
        </g>
    </g>
</svg>