<?xml version="1.0" encoding="UTF-8"?>
<svg width="184px" height="184px" viewBox="0 0 184 184" version="1.1" xmlns="http://www.w3.org/2000/svg" xmlns:xlink="http://www.w3.org/1999/xlink">
    <title>chain/stellar-icon</title>
    <g id="chain/stellar-icon" stroke="none" stroke-width="1" fill="none" fill-rule="evenodd">
        <g id="stellar-xlm-logo" transform="translate(0.000000, 14.000000)" fill="#4E4763" fill-rule="nonzero">
            <path d="M158.030124,20.2372651 L135.874767,31.4497946 L28.8891521,85.5792475 C28.5273842,82.8384399 28.3453566,80.0771716 28.3442207,77.3129068 C28.3739861,54.8710958 40.3622763,34.1220986 59.8545655,22.7756834 C79.3468548,11.4292683 103.429679,11.1813556 123.15451,22.1240632 L135.835844,15.7058566 L137.727534,14.7469921 C114.040706,-2.33052868 82.7124437,-4.76767199 56.6379503,8.43872837 C30.5634568,21.6451287 14.1496266,48.2630365 14.1526485,77.3361051 C14.1526485,79.3053862 14.2279009,81.2669344 14.3784058,83.2207499 C14.8094213,88.878295 11.7763691,94.2391439 6.68708749,96.8149754 L0,100.201933 L0,116 L19.6875952,106.032448 L19.6875952,106.032448 L26.0632933,102.800146 L32.3455745,99.6219741 L32.3455745,99.6219741 L145.130817,42.5385997 L157.804366,36.1281259 L184,22.86641 L184,7.07607531 L158.030124,20.2372651 Z" id="Path"></path>
            <path d="M184,39 L38.7524116,112.482334 L26.0788628,118.910105 L0,132.11372 L0,147.900819 L25.8998138,134.790024 L48.0551701,123.574299 L155.149772,69.3520715 C155.511802,72.1117785 155.693826,74.8918608 155.694703,77.6749127 C155.680684,100.149992 143.678554,120.933847 124.157336,132.28756 C104.636117,143.641274 80.5208828,143.863598 60.7909968,132.871748 L60.0125233,133.281702 L46.264681,140.243187 C69.9459413,157.326 101.268581,159.769649 127.342945,146.568543 C153.41731,133.367436 169.837866,106.752038 169.847351,77.6749127 C169.847351,75.6870222 169.769504,73.6991317 169.621594,71.7344461 C169.191293,66.0775249 172.220384,60.7167265 177.305128,58.1363468 L184,54.7484245 L184,39 Z" id="Path"></path>
        </g>
    </g>
</svg>